P2
136 90
255
0 0 0 0 0 0 0 0 0 0 0 0 0 0 0 0 0 0 0 0 0 0 0 0 0 0 0 0 0 0 0 0 0 0 0 0 0 0 0 0 0 0 0 0 0 0 0 0 0 0 0 0 0 0 0 0 0 0 0 0 1 1 1 1 0 1 2 2 2 2 1 0 1 1 1 1 0 0 0 0 0 0 0 0 0 0 0 0 0 0 0 0 0 0 0 0 0 0 0 0 0 0 0 0 0 0 0 0 0 0 0 0 0 0 0 0 0 0 0 0 0 0 0 0 0 0 0 0 0 0 0 0 0 0 0 0 
0 0 0 0 0 0 0 0 0 0 0 0 0 0 0 0 0 0 0 0 0 0 0 0 0 0 0 0 0 0 0 0 0 0 0 0 0 0 0 0 0 0 0 0 0 0 0 0 0 0 0 0 0 0 0 0 0 0 0 0 0 1 1 1 0 1 1 2 2 1 1 0 1 1 1 0 0 0 0 0 0 0 0 0 0 0 0 0 0 0 0 0 0 0 0 0 0 0 0 0 0 0 0 0 0 0 0 0 0 0 0 0 0 0 0 0 0 0 0 0 0 0 0 0 0 0 0 0 0 0 0 0 0 0 0 0 
0 0 0 0 0 0 0 0 0 0 0 0 0 0 0 0 0 0 0 0 0 0 0 0 0 0 0 0 0 0 0 0 0 0 0 0 0 0 0 0 0 0 0 0 0 0 0 0 0 0 0 0 0 0 0 0 0 0 0 0 0 1 1 1 0 0 0 0 0 0 0 0 1 1 1 0 0 0 0 0 0 0 0 0 0 0 0 0 0 0 0 0 0 0 0 0 0 0 0 0 0 0 0 0 0 0 0 0 0 0 0 0 0 0 0 0 0 0 0 0 0 0 0 0 0 0 0 0 0 0 0 0 0 0 0 0 
0 0 0 0 0 0 0 0 0 0 0 0 0 0 0 0 0 0 0 0 0 0 0 0 0 0 0 0 0 0 0 0 0 0 0 0 0 0 0 0 0 0 0 0 0 0 0 0 0 0 0 0 0 0 0 0 0 0 0 0 0 0 1 1 0 0 0 0 0 0 0 0 1 1 0 0 0 0 0 0 0 0 0 0 0 0 0 0 0 0 0 0 0 0 0 0 0 0 0 0 0 0 0 0 0 0 0 0 0 0 0 0 0 0 0 0 0 0 0 0 0 0 0 0 0 0 0 0 0 0 0 0 0 0 0 0 
0 0 0 0 0 0 0 0 0 0 0 0 0 0 0 0 0 0 0 0 0 0 0 0 0 0 0 0 0 0 0 0 0 0 0 0 0 0 0 0 0 0 0 0 0 0 0 0 0 0 0 0 0 0 0 0 0 0 0 0 0 0 0 0 0 0 0 0 0 0 0 0 0 0 0 0 0 0 0 0 0 0 0 0 0 0 0 0 0 0 0 0 0 0 0 0 0 0 0 0 0 0 0 0 0 0 0 0 0 0 0 0 0 0 0 0 0 0 0 0 0 0 0 0 0 0 0 0 0 0 0 0 0 0 0 0 
0 0 0 0 0 0 0 0 0 0 0 0 0 0 0 0 0 0 0 0 0 0 0 0 0 0 0 0 0 0 0 0 0 0 0 0 0 0 0 0 0 0 0 0 0 0 0 0 0 0 0 0 0 0 0 0 0 0 0 0 0 0 0 0 0 1 1 1 1 1 1 0 0 0 0 0 0 0 0 0 0 0 0 0 0 0 0 0 0 0 0 0 0 0 0 0 0 0 0 0 0 0 0 0 0 0 0 0 0 0 0 0 0 0 0 0 0 0 0 0 0 0 0 0 0 0 0 0 0 0 0 0 0 0 0 0 
0 0 0 0 0 0 0 0 0 0 0 0 0 0 0 0 0 0 0 0 0 0 0 0 0 0 0 0 0 0 0 0 0 0 0 0 0 0 0 0 0 0 0 0 0 0 0 0 0 0 0 0 0 0 0 0 0 0 0 0 0 0 1 1 1 1 1 1 1 1 1 1 1 1 0 0 0 0 0 0 0 0 0 0 0 0 0 0 0 0 0 0 0 0 0 0 0 0 0 0 0 0 0 0 0 0 0 0 0 0 0 0 0 0 0 0 0 0 0 0 0 0 0 0 0 0 0 0 0 0 0 0 0 0 0 0 
0 0 0 0 0 0 0 0 0 0 0 0 0 0 0 0 0 0 0 0 0 0 0 0 0 1 0 0 0 0 0 0 0 0 0 0 0 0 0 0 0 0 0 0 0 0 0 0 0 0 0 0 0 0 0 0 0 0 0 1 0 1 1 1 1 1 1 1 1 1 1 1 1 1 1 0 1 0 0 0 0 0 0 0 0 0 0 0 0 0 0 0 0 0 0 0 0 0 0 0 0 0 0 0 0 0 0 0 0 0 1 0 0 0 0 0 0 0 0 0 0 0 0 0 0 0 0 0 0 0 0 0 0 0 0 0 
0 0 0 0 0 0 0 0 0 0 0 0 0 0 0 0 0 0 0 0 0 0 0 0 1 1 0 0 8 4 1 6 6 2 1 1 1 4 4 0 1 0 0 0 0 0 0 0 0 1 0 0 0 0 0 0 1 0 7 0 3 8 2 10 7 2 1 5 5 1 2 7 10 2 8 3 0 7 0 1 0 0 0 0 0 0 1 0 0 0 0 0 0 0 0 1 0 4 4 1 1 1 2 6 6 1 4 8 0 0 1 1 0 0 0 0 0 0 0 0 0 0 0 0 0 0 0 0 0 0 0 0 0 0 0 0 
0 0 0 0 0 0 0 0 0 0 0 0 0 0 0 0 0 0 0 0 0 0 0 0 1 1 0 2 4 1 16 34 36 26 5 1 9 1 0 4 1 0 0 0 0 0 0 0 1 1 0 0 0 0 0 0 4 0 0 1 5 3 2 2 0 11 12 0 0 12 11 0 2 2 3 5 1 0 0 4 0 0 0 0 0 0 1 1 0 0 0 0 0 0 0 1 4 0 1 9 1 5 26 36 34 16 1 4 2 0 1 1 0 0 0 0 0 0 0 0 0 0 0 0 0 0 0 0 0 0 0 0 0 0 0 0 
0 0 0 0 0 0 0 0 0 0 0 0 0 0 0 0 0 0 0 0 0 0 0 0 1 1 0 7 0 2 43 55 48 47 34 11 1 2 3 0 0 0 0 0 0 0 0 0 1 1 0 0 0 0 0 0 2 0 0 1 7 2 13 10 5 0 2 11 11 2 0 5 10 13 2 7 1 0 0 2 0 0 0 0 0 0 1 1 0 0 0 0 0 0 0 0 0 3 2 1 11 34 47 48 55 43 2 0 7 0 1 1 0 0 0 0 0 0 0 0 0 0 0 0 0 0 0 0 0 0 0 0 0 0 0 0 
0 0 0 0 0 0 0 0 0 0 0 0 0 0 0 0 0 0 0 0 0 0 0 0 0 3 0 8 1 12 59 55 47 42 51 41 2 2 14 1 1 0 0 0 0 0 0 0 1 1 1 0 0 0 0 0 0 4 3 1 5 3 44 48 39 18 2 5 5 2 18 39 48 44 3 5 1 3 4 0 0 0 0 0 0 1 1 1 0 0 0 0 0 0 0 1 1 14 2 2 41 51 42 47 55 59 12 1 8 0 3 0 0 0 0 0 0 0 0 0 0 0 0 0 0 0 0 0 0 0 0 0 0 0 0 0 
0 0 0 0 0 0 0 0 0 0 0 0 0 0 0 0 0 0 0 0 0 0 0 0 0 6 0 5 1 26 61 41 43 28 40 56 43 5 2 11 1 0 0 0 0 0 0 0 1 1 1 0 0 0 0 0 0 4 2 1 6 21 60 60 55 60 40 3 3 40 60 55 60 60 21 6 1 2 4 0 0 0 0 0 0 1 1 1 0 0 0 0 0 0 0 1 11 2 5 43 56 40 28 43 41 61 26 1 5 0 6 0 0 0 0 0 0 0 0 0 0 0 0 0 0 0 0 0 0 0 0 0 0 0 0 0 
0 0 0 0 0 0 0 0 0 0 0 0 0 0 0 0 0 0 0 0 0 0 0 0 0 5 1 2 1 32 57 29 30 35 25 42 62 36 2 11 1 0 0 0 0 0 0 0 1 1 1 0 0 0 1 1 1 2 1 1 8 44 60 48 43 57 59 56 56 59 57 43 48 60 44 8 1 1 2 1 1 1 0 0 0 1 1 1 0 0 0 0 0 0 0 1 11 2 36 62 42 25 35 30 29 57 32 1 2 1 5 0 0 0 0 0 0 0 0 0 0 0 0 0 0 0 0 0 0 0 0 0 0 0 0 0 
0 0 0 0 0 0 0 0 0 0 0 0 0 0 0 0 0 0 0 0 0 0 0 0 2 0 2 1 2 31 49 34 25 38 25 22 52 58 30 2 1 0 0 0 0 0 0 0 1 1 1 0 0 0 1 1 2 2 1 1 4 56 56 35 29 35 62 108 108 62 35 29 35 56 56 4 1 1 2 2 1 1 0 0 0 1 1 1 0 0 0 0 0 0 0 1 2 30 58 52 22 25 38 25 34 49 31 2 1 2 0 2 0 0 0 0 0 0 0 0 0 0 0 0 0 0 0 0 0 0 0 0 0 0 0 0 
0 0 0 0 0 0 0 0 0 0 0 0 0 0 0 0 0 0 0 0 0 0 0 0 5 0 2 1 2 26 43 45 37 20 25 30 32 58 57 6 1 0 0 0 0 0 0 0 1 1 0 0 0 0 0 0 1 4 5 4 2 60 55 37 36 39 68 100 100 68 39 36 37 55 60 2 4 5 4 1 0 0 0 0 0 0 1 1 0 0 0 0 0 0 0 1 6 57 58 32 30 25 20 37 45 43 26 2 1 2 0 5 0 0 0 0 0 0 0 0 0 0 0 0 0 0 0 0 0 0 0 0 0 0 0 0 
0 0 0 0 0 0 0 0 0 0 0 0 0 0 0 0 0 0 0 0 0 0 0 0 0 4 1 1 5 28 49 45 35 22 13 19 32 43 51 58 1 3 3 3 6 0 0 11 1 1 0 4 0 8 0 0 2 14 1 2 13 60 52 40 29 83 100 81 81 100 83 29 40 52 60 13 2 1 14 2 0 0 8 0 4 0 1 1 11 0 0 6 3 3 3 1 58 51 43 32 19 13 22 35 45 49 28 5 1 1 4 0 0 0 0 0 0 0 0 0 0 0 0 0 0 0 0 0 0 0 0 0 0 0 0 0 
0 0 0 0 0 0 0 0 0 0 0 0 0 0 0 0 0 0 0 0 0 0 0 0 0 3 0 1 5 26 48 44 37 34 31 30 29 34 50 62 29 13 0 0 1 4 10 1 5 10 0 0 1 1 1 8 2 2 1 16 5 69 59 40 70 83 83 67 67 83 83 70 40 59 69 5 16 1 2 2 8 1 1 1 0 0 10 5 1 10 4 1 0 0 13 29 62 50 34 29 30 31 34 37 44 48 26 5 1 0 3 0 0 0 0 0 0 0 0 0 0 0 0 0 0 0 0 0 0 0 0 0 0 0 0 0 
0 0 0 0 0 0 0 0 0 0 0 0 0 0 0 0 0 0 0 0 0 0 0 0 0 3 0 1 3 22 45 44 41 40 37 30 18 18 35 52 61 21 1 13 2 0 8 9 1 2 4 0 12 1 1 1 4 4 8 10 6 58 55 70 99 81 63 57 57 63 81 99 70 55 58 6 10 8 4 4 1 1 1 12 0 4 2 1 9 8 0 2 13 1 21 61 52 35 18 18 30 37 40 41 44 45 22 3 1 0 3 0 0 0 0 0 0 0 0 0 0 0 0 0 0 0 0 0 0 0 0 0 0 0 0 0 
0 0 0 0 0 0 0 0 0 0 0 0 0 0 0 0 0 0 0 0 0 0 0 0 0 2 0 1 2 17 41 43 53 47 41 35 30 28 36 47 70 57 4 8 2 3 8 1 6 1 4 1 2 1 4 8 2 3 1 6 15 53 89 116 99 73 53 55 55 53 73 99 116 89 53 15 6 1 3 2 8 4 1 2 1 4 1 6 1 8 3 2 8 4 57 70 47 36 28 30 35 41 47 53 43 41 17 2 1 0 2 0 0 0 0 0 0 0 0 0 0 0 0 0 0 0 0 0 0 0 0 0 0 0 0 0 
0 0 0 0 0 0 0 0 0 0 0 0 0 0 0 0 0 0 0 0 0 0 0 0 0 1 0 2 1 11 37 42 50 44 40 37 35 34 40 47 63 72 52 29 13 3 2 4 7 2 17 18 10 3 12 2 14 4 2 13 6 56 115 115 89 73 60 59 59 60 73 89 115 115 56 6 13 2 4 14 2 12 3 10 18 17 2 7 4 2 3 13 29 52 72 63 47 40 34 35 37 40 44 50 42 37 11 1 2 0 1 0 0 0 0 0 0 0 0 0 0 0 0 0 0 0 0 0 0 0 0 0 0 0 0 0 
0 0 0 0 0 0 0 0 0 0 0 0 0 0 0 0 0 0 0 0 0 0 0 0 0 0 0 3 1 6 34 41 41 39 37 33 25 21 31 43 55 66 71 55 66 33 30 50 62 65 78 81 78 75 70 46 16 22 4 25 18 87 121 113 92 88 80 74 74 80 88 92 113 121 87 18 25 4 22 16 46 70 75 78 81 78 65 62 50 30 33 66 55 71 66 55 43 31 21 25 33 37 39 41 41 34 6 1 3 0 0 0 0 0 0 0 0 0 0 0 0 0 0 0 0 0 0 0 0 0 0 0 0 0 0 0 
0 0 0 0 0 0 0 0 0 0 0 0 0 0 0 0 0 0 0 0 0 0 0 0 0 0 0 3 1 3 30 40 44 42 41 36 27 24 35 49 59 63 68 54 75 79 70 66 68 76 78 76 75 77 74 69 72 70 69 55 61 81 102 94 92 91 88 83 83 88 91 92 94 102 81 61 55 69 70 72 69 74 77 75 76 78 76 68 66 70 79 75 54 68 63 59 49 35 24 27 36 41 42 44 40 30 3 1 3 0 0 0 0 0 0 0 0 0 0 0 0 0 0 0 0 0 0 0 0 0 0 0 0 0 0 0 
0 0 0 0 0 0 0 0 0 0 0 0 0 0 0 0 0 0 0 0 0 0 0 0 1 0 0 4 1 2 29 40 43 37 32 31 32 35 45 55 67 62 67 70 60 73 65 81 60 77 72 66 69 76 71 75 75 44 81 64 71 71 105 98 76 74 77 81 81 77 74 76 98 105 71 71 64 81 44 75 75 71 76 69 66 72 77 60 81 65 73 60 70 67 62 67 55 45 35 32 31 32 37 43 40 29 2 1 4 0 0 1 0 0 0 0 0 0 0 0 0 0 0 0 0 0 0 0 0 0 0 0 0 0 0 0 
0 0 0 0 0 0 0 0 0 0 0 0 0 0 0 0 0 0 0 0 0 0 0 0 0 0 0 8 1 2 30 32 42 48 48 47 53 57 57 57 51 71 68 62 73 77 84 84 63 70 80 74 72 82 58 84 84 70 77 71 72 67 77 113 103 76 60 70 70 60 76 103 113 77 67 72 71 77 70 84 84 58 82 72 74 80 70 63 84 84 77 73 62 68 71 51 57 57 57 53 47 48 48 42 32 30 2 1 8 0 0 0 0 0 0 0 0 0 0 0 0 0 0 0 0 0 0 0 0 0 0 0 0 0 0 0 
0 0 0 0 0 0 0 0 0 0 0 0 0 0 0 0 0 0 0 0 0 0 0 0 0 0 0 6 1 3 31 34 36 46 53 52 47 43 40 38 34 64 75 77 79 75 82 84 62 76 80 81 77 73 51 77 84 79 82 70 64 59 65 91 97 99 90 73 73 90 99 97 91 65 59 64 70 82 79 84 77 51 73 77 81 80 76 62 84 82 75 79 77 75 64 34 38 40 43 47 52 53 46 36 34 31 3 1 6 0 0 0 0 0 0 0 0 0 0 0 0 0 0 0 0 0 0 0 0 0 0 0 0 0 0 0 
0 0 0 0 0 0 0 0 0 0 0 0 0 0 0 0 0 0 0 0 0 0 0 0 1 0 0 2 1 5 32 40 50 44 49 52 41 32 45 59 76 74 72 70 68 65 80 85 66 72 76 81 81 81 69 81 86 72 68 68 77 79 75 81 68 89 98 91 91 98 89 68 81 75 79 77 68 68 72 86 81 69 81 81 81 76 72 66 85 80 65 68 70 72 74 76 59 45 32 41 52 49 44 50 40 32 5 1 2 0 0 1 0 0 0 0 0 0 0 0 0 0 0 0 0 0 0 0 0 0 0 0 0 0 0 0 
0 0 0 0 0 0 0 0 0 0 0 0 0 0 0 0 0 0 0 0 0 0 0 0 1 0 0 1 1 6 29 44 58 53 50 43 36 48 67 73 70 65 70 73 73 72 80 85 75 65 83 82 81 82 51 71 87 72 63 68 72 70 79 119 77 76 86 102 102 86 76 77 119 79 70 72 68 63 72 87 71 51 82 81 82 83 65 75 85 80 72 73 73 70 65 70 73 67 48 36 43 50 53 58 44 29 6 1 1 0 0 1 0 0 0 0 0 0 0 0 0 0 0 0 0 0 0 0 0 0 0 0 0 0 0 0 
0 0 0 0 0 0 0 0 0 0 0 0 0 0 0 0 0 0 0 0 0 0 0 0 0 0 3 1 1 4 21 44 51 61 57 39 43 66 72 63 60 63 71 68 67 74 79 84 74 45 81 82 81 78 62 83 81 72 66 72 68 60 76 126 117 99 87 95 95 87 99 117 126 76 60 68 72 66 72 81 83 62 78 81 82 81 45 74 84 79 74 67 68 71 63 60 63 72 66 43 39 57 61 51 44 21 4 1 1 3 0 0 0 0 0 0 0 0 0 0 0 0 0 0 0 0 0 0 0 0 0 0 0 0 0 0 
0 0 0 0 0 0 0 0 0 0 0 0 0 0 0 0 0 0 0 0 0 0 0 0 0 0 4 0 1 3 9 37 55 56 48 46 60 67 64 60 67 73 76 71 74 80 66 65 84 62 72 82 82 65 76 84 65 73 70 72 75 75 72 101 120 116 103 87 87 103 116 120 101 72 75 75 72 70 73 65 84 76 65 82 82 72 62 84 65 66 80 74 71 76 73 67 60 64 67 60 46 48 56 55 37 9 3 1 0 4 0 0 0 0 0 0 0 0 0 0 0 0 0 0 0 0 0 0 0 0 0 0 0 0 0 0 
0 0 0 0 0 0 0 0 0 0 0 0 0 0 0 0 0 0 0 0 0 0 0 0 0 0 2 0 4 4 3 24 67 58 41 49 67 63 58 70 75 75 70 61 78 84 62 43 83 69 62 82 84 63 81 73 58 84 82 64 61 71 68 85 96 113 111 90 90 111 113 96 85 68 71 61 64 82 84 58 73 81 63 84 82 62 69 83 43 62 84 78 61 70 75 75 70 58 63 67 49 41 58 67 24 3 4 4 0 2 0 0 0 0 0 0 0 0 0 0 0 0 0 0 0 0 0 0 0 0 0 0 0 0 0 0 
0 0 0 0 0 0 0 0 0 0 0 0 0 0 0 0 0 0 0 0 0 0 0 0 2 0 0 0 6 5 3 15 67 70 53 43 63 67 62 69 71 71 64 51 78 84 61 43 82 76 69 79 80 64 83 62 43 85 85 58 55 73 70 76 96 113 111 93 93 111 113 96 76 70 73 55 58 85 85 43 62 83 64 80 79 69 76 82 43 61 84 78 51 64 71 71 69 62 67 63 43 53 70 67 15 3 5 6 0 0 0 2 0 0 0 0 0 0 0 0 0 0 0 0 0 0 0 0 0 0 0 0 0 0 0 0 
0 0 0 0 0 0 0 0 0 0 0 0 0 0 0 0 0 0 0 0 0 0 0 0 2 1 1 0 1 2 4 18 76 58 52 62 63 56 65 77 79 80 75 47 72 84 51 44 68 75 68 73 76 69 77 58 37 83 75 56 64 72 81 72 87 113 135 108 108 135 113 87 72 81 72 64 56 75 83 37 58 77 69 76 73 68 75 68 44 51 84 72 47 75 80 79 77 65 56 63 62 52 58 76 18 4 2 1 0 1 1 2 0 0 0 0 0 0 0 0 0 0 0 0 0 0 0 0 0 0 0 0 0 0 0 0 
0 0 0 0 0 0 0 0 0 0 0 0 0 0 0 0 0 0 0 0 0 0 0 0 2 1 5 2 2 4 6 25 72 60 43 62 67 65 62 57 60 66 71 61 71 83 62 39 62 67 68 70 72 64 66 50 38 81 68 47 70 76 76 66 67 102 133 117 117 133 102 67 66 76 76 70 47 68 81 38 50 66 64 72 70 68 67 62 39 62 83 71 61 71 66 60 57 62 65 67 62 43 60 72 25 6 4 2 2 5 1 2 0 0 0 0 0 0 0 0 0 0 0 0 0 0 0 0 0 0 0 0 0 0 0 0 
0 0 0 0 0 0 0 0 0 0 0 0 0 0 0 0 0 0 0 0 0 0 0 0 1 1 4 1 2 2 5 29 59 64 47 65 71 60 43 54 47 50 53 36 25 51 52 57 65 63 66 61 64 61 62 58 53 55 37 42 43 36 51 54 58 110 128 99 99 128 110 58 54 51 36 43 42 37 55 53 58 62 61 64 61 66 63 65 57 52 51 25 36 53 50 47 54 43 60 71 65 47 64 59 29 5 2 2 1 4 1 1 0 0 0 0 0 0 0 0 0 0 0 0 0 0 0 0 0 0 0 0 0 0 0 0 
0 0 0 0 0 0 0 0 0 0 0 0 0 0 0 0 0 0 0 0 0 0 0 0 1 1 2 0 1 2 4 36 56 58 55 57 69 76 73 75 82 82 84 82 60 45 39 47 66 66 64 54 62 63 65 60 34 35 55 78 82 78 71 46 34 113 131 99 99 131 113 34 46 71 78 82 78 55 35 34 60 65 63 62 54 64 66 66 47 39 45 60 82 84 82 82 75 73 76 69 57 55 58 56 36 4 2 1 0 2 1 1 0 0 0 0 0 0 0 0 0 0 0 0 0 0 0 0 0 0 0 0 0 0 0 0 
0 0 0 0 0 0 0 0 0 0 0 0 0 0 0 0 0 0 0 0 0 0 0 0 1 1 4 1 3 2 7 48 68 46 79 84 83 72 70 83 83 82 75 59 82 82 34 40 56 68 62 57 67 63 61 37 41 80 81 71 75 82 85 85 78 134 128 107 107 128 134 78 85 85 82 75 71 81 80 41 37 61 63 67 57 62 68 56 40 34 82 82 59 75 82 83 83 70 72 83 84 79 46 68 48 7 2 3 1 4 1 1 0 0 0 0 0 0 0 0 0 0 0 0 0 0 0 0 0 0 0 0 0 0 0 0 
0 0 0 0 0 0 0 0 0 0 0 0 0 0 0 0 0 0 0 0 0 0 0 0 1 2 2 1 3 2 12 59 62 80 84 70 52 39 38 77 69 70 84 81 75 81 66 21 50 68 64 59 68 58 49 18 69 78 75 73 67 69 80 77 52 119 134 157 157 134 119 52 77 80 69 67 73 75 78 69 18 49 58 68 59 64 68 50 21 66 81 75 81 84 70 69 77 38 39 52 70 84 80 62 59 12 2 3 1 2 2 1 0 0 0 0 0 0 0 0 0 0 0 0 0 0 0 0 0 0 0 0 0 0 0 0 
0 0 0 0 0 0 0 0 0 0 0 0 0 0 0 0 0 0 0 0 0 0 0 0 0 1 0 1 4 2 19 68 71 84 73 62 61 56 28 62 56 53 81 75 59 75 75 16 49 63 67 61 67 54 38 30 77 53 66 84 71 44 71 56 35 103 119 156 156 119 103 35 56 71 44 71 84 66 53 77 30 38 54 67 61 67 63 49 16 75 75 59 75 81 53 56 62 28 56 61 62 73 84 71 68 19 2 4 1 0 1 0 0 0 0 0 0 0 0 0 0 0 0 0 0 0 0 0 0 0 0 0 0 0 0 0 
0 0 0 0 0 0 0 0 0 0 0 0 0 0 0 0 0 0 0 0 0 1 0 0 1 4 1 1 7 6 28 74 78 82 64 80 63 65 51 33 69 44 42 39 57 78 80 29 41 52 71 65 68 55 30 45 83 57 25 59 40 39 71 27 54 126 123 146 146 123 126 54 27 71 39 40 59 25 57 83 45 30 55 68 65 71 52 41 29 80 78 57 39 42 44 69 33 51 65 63 80 64 82 78 74 28 6 7 1 1 4 1 0 0 1 0 0 0 0 0 0 0 0 0 0 0 0 0 0 0 0 0 0 0 0 0 
0 0 0 0 0 0 0 0 0 0 0 0 0 0 0 0 0 0 0 1 7 2 1 5 6 1 1 2 13 30 55 73 84 67 39 67 72 63 73 67 37 61 58 68 71 78 83 54 56 64 67 67 70 51 37 76 83 75 53 38 61 65 41 46 97 125 153 133 133 153 125 97 46 41 65 61 38 53 75 83 76 37 51 70 67 67 64 56 54 83 78 71 68 58 61 37 67 73 63 72 67 39 67 84 73 55 30 13 2 1 1 6 5 1 2 7 1 0 0 0 0 0 0 0 0 0 0 0 0 0 0 0 0 0 0 0 
0 0 0 0 0 0 0 0 0 0 0 0 0 0 0 0 0 8 6 1 1 1 2 8 1 13 33 50 57 57 65 76 74 46 27 51 58 64 69 70 62 58 44 29 28 64 81 75 64 60 62 60 62 60 61 77 66 55 57 55 43 44 58 71 94 137 154 109 109 154 137 94 71 58 44 43 55 57 55 66 77 61 60 62 60 62 60 64 75 81 64 28 29 44 58 62 70 69 64 58 51 27 46 74 76 65 57 57 50 33 13 1 8 2 1 1 1 6 8 0 0 0 0 0 0 0 0 0 0 0 0 0 0 0 0 0 
0 0 0 0 0 0 0 0 0 0 0 0 0 0 0 0 0 3 2 1 3 2 1 3 33 50 65 72 73 69 72 79 51 50 45 45 49 72 67 64 75 67 69 53 40 64 74 76 69 53 51 48 48 64 72 72 71 43 23 43 56 64 69 64 73 153 124 70 70 124 153 73 64 69 64 56 43 23 43 71 72 72 64 48 48 51 53 69 76 74 64 40 53 69 67 75 64 67 72 49 45 45 50 51 79 72 69 73 72 65 50 33 3 1 2 3 1 2 3 0 0 0 0 0 0 0 0 0 0 0 0 0 0 0 0 0 
0 0 0 0 0 0 0 0 0 0 0 0 0 0 0 0 1 1 1 1 3 2 15 37 68 73 76 77 75 71 72 77 39 54 40 40 41 70 70 74 73 66 73 68 60 70 74 79 76 63 56 53 56 72 78 74 73 74 62 66 72 67 69 73 76 147 99 87 87 99 147 76 73 69 67 72 66 62 74 73 74 78 72 56 53 56 63 76 79 74 70 60 68 73 66 73 74 70 70 41 40 40 54 39 77 72 71 75 77 76 73 68 37 15 2 3 1 1 1 1 0 0 0 0 0 0 0 0 0 0 0 0 0 0 0 0 
0 0 0 0 0 0 0 0 0 0 0 0 0 0 0 0 2 8 3 1 1 23 55 74 76 78 79 80 79 74 69 70 56 70 55 64 48 37 40 58 68 64 64 66 61 64 76 80 78 71 59 58 66 74 79 78 68 70 60 63 70 67 65 55 51 92 96 65 65 96 92 51 55 65 67 70 63 60 70 68 78 79 74 66 58 59 71 78 80 76 64 61 66 64 64 68 58 40 37 48 64 55 70 56 70 69 74 79 80 79 78 76 74 55 23 1 1 3 8 2 0 0 0 0 0 0 0 0 0 0 0 0 0 0 0 0 
0 0 0 0 0 0 0 0 0 0 0 0 0 0 0 1 1 5 1 2 37 67 77 79 80 81 81 81 80 75 67 64 67 82 78 80 69 56 61 65 63 66 59 64 58 56 75 78 77 72 55 54 66 73 77 79 62 56 64 67 54 60 73 66 55 112 116 97 97 116 112 55 66 73 60 54 67 64 56 62 79 77 73 66 54 55 72 77 78 75 56 58 64 59 66 63 65 61 56 69 80 78 82 67 64 67 75 80 81 81 81 80 79 77 67 37 2 1 5 1 1 0 0 0 0 0 0 0 0 0 0 0 0 0 0 0 
0 0 0 0 0 0 0 0 0 0 0 0 0 0 0 1 1 1 2 39 73 81 80 78 82 83 82 81 78 72 65 64 79 82 78 71 61 57 57 51 55 66 64 64 56 54 75 80 79 74 60 60 69 75 79 75 59 45 64 69 53 54 66 65 68 133 133 141 141 133 133 68 65 66 54 53 69 64 45 59 75 79 75 69 60 60 74 79 80 75 54 56 64 64 66 55 51 57 57 61 71 78 82 79 64 65 72 78 81 82 83 82 78 80 81 73 39 2 1 1 1 0 0 0 0 0 0 0 0 0 0 0 0 0 0 0 
0 0 0 0 0 0 0 0 0 0 0 0 0 0 0 1 6 1 22 67 81 81 79 82 82 83 83 81 77 70 64 65 80 72 72 79 81 74 57 52 54 74 80 80 71 61 69 73 81 75 64 65 68 76 79 65 60 60 77 81 75 61 44 59 75 116 148 160 160 148 116 75 59 44 61 75 81 77 60 60 65 79 76 68 65 64 75 81 73 69 61 71 80 80 74 54 52 57 74 81 79 72 72 80 65 64 70 77 81 83 83 82 82 79 81 81 67 22 1 6 1 0 0 0 0 0 0 0 0 0 0 0 0 0 0 0 
0 0 0 0 0 0 0 0 0 1 0 1 1 0 5 3 3 9 57 80 80 79 82 84 83 84 82 76 75 81 70 66 59 77 72 58 54 51 51 42 42 51 52 56 64 55 40 42 76 85 77 72 83 78 51 47 55 73 69 64 57 65 65 78 91 114 149 158 158 149 114 91 78 65 65 57 64 69 73 55 47 51 78 83 72 77 85 76 42 40 55 64 56 52 51 42 42 51 51 54 58 72 77 59 66 70 81 75 76 82 84 83 84 82 79 80 80 57 9 3 3 5 0 1 1 0 1 0 0 0 0 0 0 0 0 0 
0 0 0 0 0 0 0 0 0 3 0 0 1 0 2 1 5 58 81 82 80 83 84 83 83 82 80 75 80 82 73 65 67 47 62 62 57 59 40 36 31 54 68 75 80 76 58 40 34 70 84 84 76 54 38 42 63 73 75 90 78 88 90 94 91 90 107 130 130 107 90 91 94 90 88 78 90 75 73 63 42 38 54 76 84 84 70 34 40 58 76 80 75 68 54 31 36 40 59 57 62 62 47 67 65 73 82 80 75 80 82 83 83 84 83 80 82 81 58 5 1 2 0 1 0 0 3 0 0 0 0 0 0 0 0 0 
0 0 0 0 0 0 0 0 0 3 2 0 1 1 0 2 30 71 83 82 80 82 83 83 83 81 81 78 82 80 74 69 62 45 46 63 64 58 49 23 24 46 62 65 59 50 42 40 48 40 77 78 48 40 44 46 73 89 99 84 48 56 86 115 105 103 98 101 101 98 103 105 115 86 56 48 84 99 89 73 46 44 40 48 78 77 40 48 40 42 50 59 65 62 46 24 23 49 58 64 63 46 45 62 69 74 80 82 78 81 81 83 83 83 82 80 82 83 71 30 2 0 1 1 0 2 3 0 0 0 0 0 0 0 0 0 
0 0 0 0 0 0 0 0 0 3 3 0 1 1 1 14 67 78 81 82 83 83 82 83 82 81 81 79 78 71 69 70 74 78 57 41 50 56 65 60 35 30 45 62 62 55 54 58 52 47 70 67 52 50 65 81 112 130 107 64 59 67 77 101 122 117 98 90 90 98 117 122 101 77 67 59 64 107 130 112 81 65 50 52 67 70 47 52 58 54 55 62 62 45 30 35 60 65 56 50 41 57 78 74 70 69 71 78 79 81 81 82 83 82 83 83 82 81 78 67 14 1 1 1 0 3 3 0 0 0 0 0 0 0 0 0 
0 0 0 0 0 0 0 0 0 0 3 0 0 1 2 38 76 81 81 81 84 84 82 82 82 82 80 81 74 69 71 76 80 82 80 56 46 58 59 76 69 47 35 50 59 56 46 38 52 67 73 75 80 82 85 78 92 104 81 57 89 117 128 137 141 111 76 99 99 76 111 141 137 128 117 89 57 81 104 92 78 85 82 80 75 73 67 52 38 46 56 59 50 35 47 69 76 59 58 46 56 80 82 80 76 71 69 74 81 80 82 82 82 82 84 84 81 81 81 76 38 2 1 0 0 3 0 0 0 0 0 0 0 0 0 0 
0 0 0 0 0 0 0 0 0 0 3 0 0 2 13 62 76 81 81 81 84 83 81 81 82 82 78 80 74 76 78 80 78 75 81 82 67 47 49 60 63 60 52 40 37 45 55 62 78 73 69 89 119 132 122 77 69 51 58 71 95 125 145 146 129 104 83 122 122 83 104 129 146 145 125 95 71 58 51 69 77 122 132 119 89 69 73 78 62 55 45 37 40 52 60 63 60 49 47 67 82 81 75 78 80 78 76 74 80 78 82 82 81 81 83 84 81 81 81 76 62 13 2 0 0 3 0 0 0 0 0 0 0 0 0 0 
0 0 0 0 0 0 0 0 2 0 4 0 2 3 25 77 79 80 82 84 84 82 80 84 80 80 77 78 74 75 80 77 81 78 76 83 78 58 62 50 46 66 70 59 43 30 30 44 47 46 60 78 99 121 127 108 87 64 83 102 115 132 142 131 111 109 96 137 137 96 109 111 131 142 132 115 102 83 64 87 108 127 121 99 78 60 46 47 44 30 30 43 59 70 66 46 50 62 58 78 83 76 78 81 77 80 75 74 78 77 80 80 84 80 82 84 84 82 80 79 77 25 3 2 0 4 0 2 0 0 0 0 0 0 0 0 
0 0 0 0 0 0 0 0 4 0 6 0 3 5 33 82 81 82 82 83 83 82 82 84 81 82 82 80 77 74 81 75 83 83 82 81 84 84 68 53 58 63 63 68 74 64 39 34 46 69 79 47 43 80 97 121 123 133 140 122 108 104 123 120 146 123 96 154 154 96 123 146 120 123 104 108 122 140 133 123 121 97 80 43 47 79 69 46 34 39 64 74 68 63 63 58 53 68 84 84 81 82 83 83 75 81 74 77 80 82 82 81 84 82 82 83 83 82 82 81 82 33 5 3 0 6 0 4 0 0 0 0 0 0 0 0 
0 0 0 0 0 0 0 0 0 0 6 0 5 3 72 80 81 79 83 83 83 82 83 81 81 82 78 82 79 69 77 71 80 84 83 82 77 81 83 82 68 65 61 63 69 70 86 117 125 117 83 79 79 98 117 134 144 129 121 118 115 109 132 147 165 108 106 153 153 106 108 165 147 132 109 115 118 121 129 144 134 117 98 79 79 83 117 125 117 86 70 69 63 61 65 68 82 83 81 77 82 83 84 80 71 77 69 79 82 78 82 81 81 83 82 83 83 83 79 81 80 72 3 5 0 6 0 0 0 0 0 0 0 0 0 0 
0 0 0 0 0 0 0 0 1 0 5 0 2 22 75 80 81 80 83 83 83 81 82 80 81 81 83 79 84 73 71 76 84 86 86 83 81 78 84 83 81 80 73 71 74 71 94 126 138 134 127 120 117 111 121 133 129 125 126 133 136 135 145 151 148 109 117 164 164 117 109 148 151 145 135 136 133 126 125 129 133 121 111 117 120 127 134 138 126 94 71 74 71 73 80 81 83 84 78 81 83 86 86 84 76 71 73 84 79 83 81 81 80 82 81 83 83 83 80 81 80 75 22 2 0 5 0 1 0 0 0 0 0 0 0 0 
0 0 0 0 0 0 0 0 1 0 3 1 1 50 79 80 82 81 83 82 81 80 81 81 83 84 81 79 79 81 75 82 74 74 83 84 86 84 81 77 85 82 83 94 114 109 97 96 108 126 137 134 142 134 139 146 149 148 149 154 152 151 151 151 156 127 111 162 162 111 127 156 151 151 151 152 154 149 148 149 146 139 134 142 134 137 126 108 96 97 109 114 94 83 82 85 77 81 84 86 84 83 74 74 82 75 81 79 79 81 84 83 81 81 80 81 82 83 81 82 80 79 50 1 1 3 0 1 0 0 0 0 0 0 0 0 
0 0 0 0 0 0 0 0 0 1 0 2 2 69 82 81 83 82 81 79 78 78 81 82 82 82 81 78 78 77 82 72 75 73 80 84 85 85 84 83 82 84 126 159 160 132 113 130 123 136 137 135 145 141 142 150 162 162 163 163 155 153 152 154 161 129 111 159 159 111 129 161 154 152 153 155 163 163 162 162 150 142 141 145 135 137 136 123 130 113 132 160 159 126 84 82 83 84 85 85 84 80 73 75 72 82 77 78 78 81 82 82 82 81 78 78 79 81 82 83 81 82 69 2 2 0 1 0 0 0 0 0 0 0 0 0 
0 0 0 0 0 0 0 0 0 1 0 1 5 77 82 80 82 82 80 78 76 77 79 82 83 83 82 81 79 77 80 74 71 71 79 83 82 85 87 90 95 150 165 165 163 163 156 132 147 145 138 141 146 147 147 156 158 159 161 162 153 150 152 161 161 128 118 144 144 118 128 161 161 152 150 153 162 161 159 158 156 147 147 146 141 138 145 147 132 156 163 163 165 165 150 95 90 87 85 82 83 79 71 71 74 80 77 79 81 82 83 83 82 79 77 76 78 80 82 82 80 82 77 5 1 0 1 0 0 0 0 0 0 0 0 0 
0 0 0 0 0 0 0 0 0 1 0 1 12 80 80 80 82 82 81 81 80 79 77 79 83 84 83 84 81 82 71 84 74 71 76 71 79 83 91 97 144 158 165 166 165 165 162 151 151 146 143 151 150 151 152 159 156 158 159 159 153 151 156 165 164 140 124 109 109 124 140 164 165 156 151 153 159 159 158 156 159 152 151 150 151 143 146 151 151 162 165 165 166 165 158 144 97 91 83 79 71 76 71 74 84 71 82 81 84 83 84 83 79 77 79 80 81 81 82 82 80 80 80 12 1 0 1 0 0 0 0 0 0 0 0 0 
0 0 0 0 0 0 0 0 0 1 0 1 25 81 79 81 80 82 82 83 82 81 75 75 77 76 83 83 85 82 69 78 84 81 75 68 75 88 106 114 132 151 165 168 166 166 166 165 161 154 153 156 152 148 150 154 163 163 160 153 154 157 163 167 165 147 127 116 116 127 147 165 167 163 157 154 153 160 163 163 154 150 148 152 156 153 154 161 165 166 166 166 168 165 151 132 114 106 88 75 68 75 81 84 78 69 82 85 83 83 76 77 75 75 81 82 83 82 82 80 81 79 81 25 1 0 1 0 0 0 0 0 0 0 0 0 
0 0 0 0 0 0 0 0 1 1 2 1 35 82 79 82 77 81 80 83 82 81 72 72 79 80 80 84 83 84 78 64 71 73 68 79 81 97 119 129 136 139 158 168 168 168 167 164 165 159 159 158 155 153 159 158 164 164 158 145 153 161 166 168 167 149 106 122 122 106 149 167 168 166 161 153 145 158 164 164 158 159 153 155 158 159 159 165 164 167 168 168 168 158 139 136 129 119 97 81 79 68 73 71 64 78 84 83 84 80 80 79 72 72 81 82 83 80 81 77 82 79 82 35 1 2 1 1 0 0 0 0 0 0 0 0 
0 0 0 0 0 0 0 0 1 3 2 0 50 82 78 72 66 70 79 91 82 81 81 76 85 76 79 93 86 92 83 83 74 68 126 143 123 115 115 113 118 149 157 163 168 169 169 166 162 154 146 145 148 151 155 158 158 158 151 160 165 166 167 166 161 141 119 126 126 119 141 161 166 167 166 165 160 151 158 158 158 155 151 148 145 146 154 162 166 169 169 168 163 157 149 118 113 115 115 123 143 126 68 74 83 83 92 86 93 79 76 85 76 81 81 82 91 79 70 66 72 78 82 50 0 2 3 1 0 0 0 0 0 0 0 0 
0 0 0 0 0 0 0 0 1 1 0 1 41 79 74 71 81 86 84 83 84 83 91 85 73 94 85 66 82 87 96 90 108 129 152 156 152 141 129 121 125 127 136 156 166 168 168 168 167 164 156 146 145 151 158 159 154 158 160 163 164 165 164 160 151 146 137 133 133 137 146 151 160 164 165 164 163 160 158 154 159 158 151 145 146 156 164 167 168 168 168 166 156 136 127 125 121 129 141 152 156 152 129 108 90 96 87 82 66 85 94 73 85 91 83 84 83 84 86 81 71 74 79 41 1 0 1 1 0 0 0 0 0 0 0 0 
0 0 0 0 0 0 0 0 3 1 2 2 30 76 75 76 84 84 86 84 93 85 91 80 78 105 115 127 145 126 125 126 136 136 144 158 165 163 160 151 146 133 137 146 156 163 165 166 167 164 160 156 151 152 158 162 156 164 166 165 163 159 155 150 144 147 142 134 134 142 147 144 150 155 159 163 165 166 164 156 162 158 152 151 156 160 164 167 166 165 163 156 146 137 133 146 151 160 163 165 158 144 136 136 126 125 126 145 127 115 105 78 80 91 85 93 84 86 84 84 76 75 76 30 2 2 1 3 0 0 0 0 0 0 0 0 
0 0 0 0 0 0 0 0 7 2 4 2 20 77 79 79 83 83 77 74 81 85 120 136 124 131 141 143 145 134 131 126 118 115 123 137 149 163 168 165 157 152 146 143 140 152 159 160 162 164 163 160 159 156 154 158 163 166 166 162 154 147 145 149 150 140 138 144 144 138 140 150 149 145 147 154 162 166 166 163 158 154 156 159 160 163 164 162 160 159 152 140 143 146 152 157 165 168 163 149 137 123 115 118 126 131 134 145 143 141 131 124 136 120 85 81 74 77 83 83 79 79 77 20 2 4 2 7 0 0 0 0 0 0 0 0 
0 0 0 0 0 0 0 0 1 1 5 2 16 80 80 78 66 65 65 95 115 132 147 155 153 135 142 142 142 131 142 152 137 133 135 126 127 151 162 165 164 160 152 151 146 148 158 152 157 155 157 159 160 160 158 156 163 161 157 150 142 141 144 152 145 134 141 155 155 141 134 145 152 144 141 142 150 157 161 163 156 158 160 160 159 157 155 157 152 158 148 146 151 152 160 164 165 162 151 127 126 135 133 137 152 142 131 142 142 142 135 153 155 147 132 115 95 65 65 66 78 80 80 16 2 5 1 1 0 0 0 0 0 0 0 0 
0 0 0 0 0 0 0 0 0 6 7 4 24 82 78 72 59 84 99 142 141 137 134 144 163 148 143 144 147 132 123 151 158 157 153 139 144 150 142 155 163 162 157 155 156 161 165 159 153 152 152 156 162 164 164 162 156 149 146 142 143 146 147 152 142 136 137 147 147 137 136 142 152 147 146 143 142 146 149 156 162 164 164 162 156 152 152 153 159 165 161 156 155 157 162 163 155 142 150 144 139 153 157 158 151 123 132 147 144 143 148 163 144 134 137 141 142 99 84 59 72 78 82 24 4 7 6 0 0 0 0 0 0 0 0 0 
0 0 0 0 0 0 0 0 0 9 2 4 29 83 74 69 79 117 128 125 105 112 131 146 153 159 147 132 141 157 154 157 152 160 162 157 158 153 141 152 159 156 152 149 155 163 167 167 155 154 152 150 154 159 160 159 153 146 145 144 148 152 150 150 137 133 128 134 134 128 133 137 150 150 152 148 144 145 146 153 159 160 159 154 150 152 154 155 167 167 163 155 149 152 156 159 152 141 153 158 157 162 160 152 157 154 157 141 132 147 159 153 146 131 112 105 125 128 117 79 69 74 83 29 4 2 9 0 0 0 0 0 0 0 0 0 
0 0 0 0 0 0 0 0 0 6 1 2 25 81 69 70 147 154 140 119 130 143 139 116 120 135 120 118 134 148 148 149 158 159 160 164 166 163 159 154 156 148 141 145 146 138 154 168 162 156 150 153 158 159 160 162 155 149 150 146 149 154 152 149 134 134 135 141 141 135 134 134 149 152 154 149 146 150 149 155 162 160 159 158 153 150 156 162 168 154 138 146 145 141 148 156 154 159 163 166 164 160 159 158 149 148 148 134 118 120 135 120 116 139 143 130 119 140 154 147 70 69 81 25 2 1 6 0 0 0 0 0 0 0 0 0 
0 0 0 0 0 0 0 0 0 0 5 3 14 65 59 145 164 148 135 144 158 150 136 122 119 119 118 111 111 126 138 151 149 157 158 163 166 168 162 165 165 162 155 155 155 148 143 155 167 160 155 148 152 164 162 157 159 148 143 146 147 160 156 138 125 123 139 159 159 139 123 125 138 156 160 147 146 143 148 159 157 162 164 152 148 155 160 167 155 143 148 155 155 155 162 165 165 162 168 166 163 158 157 149 151 138 126 111 111 118 119 119 122 136 150 158 144 135 148 164 145 59 65 14 3 5 0 0 0 0 0 0 0 0 0 0 
0 0 0 0 0 0 0 0 8 13 6 1 2 47 135 165 159 138 148 165 164 146 135 135 138 117 117 114 104 134 125 139 121 131 149 164 167 168 163 168 167 165 161 159 157 146 134 139 159 161 162 155 150 156 158 161 161 153 148 143 149 159 152 129 122 129 135 152 152 135 129 122 129 152 159 149 143 148 153 161 161 158 156 150 155 162 161 159 139 134 146 157 159 161 165 167 168 163 168 167 164 149 131 121 139 125 134 104 114 117 117 138 135 135 146 164 165 148 138 159 165 135 47 2 1 6 13 8 0 0 0 0 0 0 0 0 
0 0 0 0 0 0 0 0 8 5 0 12 11 92 160 165 159 158 165 165 142 134 141 135 146 100 108 106 104 134 124 126 115 107 121 143 157 162 162 165 164 162 161 160 160 158 151 143 149 162 162 155 149 147 149 155 161 157 154 144 153 154 146 126 133 145 142 148 148 142 145 133 126 146 154 153 144 154 157 161 155 149 147 149 155 162 162 149 143 151 158 160 160 161 162 164 165 162 162 157 143 121 107 115 126 124 134 104 106 108 100 146 135 141 134 142 165 165 158 159 165 160 92 11 12 0 5 8 0 0 0 0 0 0 0 0 
0 0 0 0 0 0 0 0 2 0 5 22 29 124 165 166 161 163 166 166 140 133 142 149 140 100 117 107 125 129 130 130 135 124 107 105 133 146 141 129 138 148 156 160 162 165 163 153 149 164 163 157 154 153 156 157 158 156 148 126 132 136 139 136 145 154 151 151 151 151 154 145 136 139 136 132 126 148 156 158 157 156 153 154 157 163 164 149 153 163 165 162 160 156 148 138 129 141 146 133 105 107 124 135 130 130 129 125 107 117 100 140 149 142 133 140 166 166 163 161 166 165 124 29 22 5 0 2 0 0 0 0 0 0 0 0 
0 0 0 0 0 0 0 0 8 1 5 4 58 136 168 168 166 166 165 164 149 141 141 153 126 121 126 114 136 129 133 143 151 146 118 95 128 148 139 118 133 136 138 138 140 145 146 141 137 153 161 162 163 164 165 160 149 138 115 98 120 128 139 148 151 156 155 154 154 155 156 151 148 139 128 120 98 115 138 149 160 165 164 163 162 161 153 137 141 146 145 140 138 138 136 133 118 139 148 128 95 118 146 151 143 133 129 136 114 126 121 126 153 141 141 149 164 165 166 166 168 168 136 58 4 5 1 8 0 0 0 0 0 0 0 0 
0 0 0 0 0 0 0 0 1 4 0 0 96 145 168 167 166 166 163 161 155 147 140 146 132 142 128 122 145 157 150 155 158 151 130 122 136 152 147 139 125 126 129 137 141 138 128 118 120 132 153 162 166 167 162 140 127 122 120 130 151 150 151 157 157 156 155 157 157 155 156 157 157 151 150 151 130 120 122 127 140 162 167 166 162 153 132 120 118 128 138 141 137 129 126 125 139 147 152 136 122 130 151 158 155 150 157 145 122 128 142 132 146 140 147 155 161 163 166 166 167 168 145 96 0 0 4 1 0 0 0 0 0 0 0 0 
0 0 0 0 0 0 0 0 1 14 12 15 85 104 155 166 163 157 164 169 167 151 142 146 129 152 143 137 155 167 154 156 161 150 146 151 138 151 145 140 141 135 131 135 143 141 135 136 129 88 85 85 83 98 100 117 133 140 147 156 165 162 159 163 164 162 159 164 164 159 162 164 163 159 162 165 156 147 140 133 117 100 98 83 85 85 88 129 136 135 141 143 135 131 135 141 140 145 151 138 151 146 150 161 156 154 167 155 137 143 152 129 146 142 151 167 169 164 157 163 166 155 104 85 15 12 14 1 0 0 0 0 0 0 0 0 
0 0 0 0 0 0 0 0 6 1 7 18 92 85 105 137 166 167 170 168 163 157 158 141 131 151 157 144 155 165 152 157 164 151 155 152 111 147 158 158 136 137 140 145 149 144 143 149 135 81 80 76 65 71 81 128 143 151 153 160 165 162 161 165 167 165 163 168 168 163 165 167 165 161 162 165 160 153 151 143 128 81 71 65 76 80 81 135 149 143 144 149 145 140 137 136 158 158 147 111 152 155 151 164 157 152 165 155 144 157 151 131 141 158 157 163 168 170 167 166 137 105 85 92 18 7 1 6 0 0 0 0 0 0 0 0 
0 0 0 0 0 0 0 0 0 2 0 11 56 86 86 86 101 147 167 169 167 164 157 150 151 154 159 140 157 167 152 154 165 164 163 148 75 70 108 159 149 142 144 149 150 153 156 142 93 79 78 80 83 73 96 125 146 151 160 168 166 166 165 166 166 167 168 168 168 168 167 166 166 165 166 166 168 160 151 146 125 96 73 83 80 78 79 93 142 156 153 150 149 144 142 149 159 108 70 75 148 163 164 165 154 152 167 157 140 159 154 151 150 157 164 167 169 167 147 101 86 86 86 56 11 0 2 0 0 0 0 0 0 0 0 0 
0 0 0 0 0 0 0 0 0 0 0 0 29 86 86 86 90 89 95 120 150 163 164 158 159 161 165 152 157 166 156 157 163 166 161 121 68 82 95 111 131 139 134 122 106 92 84 74 70 75 87 77 75 79 125 140 143 151 160 167 166 167 168 169 168 166 166 168 168 166 166 168 169 168 167 166 167 160 151 143 140 125 79 75 77 87 75 70 74 84 92 106 122 134 139 131 111 95 82 68 121 161 166 163 157 156 166 157 152 165 161 159 158 164 163 150 120 95 89 90 86 86 86 29 0 0 0 0 0 0 0 0 0 0 0 0 
0 0 0 0 0 0 0 0 3 2 8 2 15 83 86 86 85 85 88 86 86 102 129 144 167 169 168 167 158 165 152 153 163 164 151 97 62 81 72 59 79 81 71 59 69 68 66 71 82 71 74 78 82 97 138 139 111 99 83 85 94 115 139 154 168 169 168 168 168 168 169 168 154 139 115 94 85 83 99 111 139 138 97 82 78 74 71 82 71 66 68 69 59 71 81 79 59 72 81 62 97 151 164 163 153 152 165 158 167 168 169 167 144 129 102 86 86 88 85 85 86 86 83 15 2 8 2 3 0 0 0 0 0 0 0 0 
0 0 0 0 0 0 0 0 3 0 0 0 0 63 84 86 97 87 85 86 85 86 86 86 89 98 140 136 155 151 162 156 158 141 111 77 76 92 79 82 89 85 80 71 75 74 75 80 80 74 81 85 81 101 137 122 81 84 82 83 84 85 80 76 89 147 167 169 169 167 147 89 76 80 85 84 83 82 84 81 122 137 101 81 85 81 74 80 80 75 74 75 71 80 85 89 82 79 92 76 77 111 141 158 156 162 151 155 136 140 98 89 86 86 86 85 86 85 87 97 86 84 63 0 0 0 0 3 0 0 0 0 0 0 0 0 
0 0 0 0 0 0 0 0 0 5 11 17 5 6 9 38 67 72 79 85 79 74 65 63 30 36 34 51 33 28 34 18 24 29 25 31 25 44 34 39 33 37 23 31 46 47 40 26 24 22 38 33 20 54 82 79 86 91 83 73 74 84 86 86 87 86 102 153 153 102 86 87 86 86 84 74 73 83 91 86 79 82 54 20 33 38 22 24 26 40 47 46 31 23 37 33 39 34 44 25 31 25 29 24 18 34 28 33 51 34 36 30 63 65 74 79 85 79 72 67 38 9 6 5 17 11 5 0 0 0 0 0 0 0 0 0 
0 0 0 0 0 0 0 0 0 4 0 0 0 1 1 13 15 8 6 4 5 2 0 1 8 2 2 6 5 0 16 0 6 0 6 4 5 14 1 3 1 6 12 16 2 3 14 2 13 1 4 5 8 45 89 94 76 81 79 77 79 86 86 85 84 73 47 18 18 47 73 84 85 86 86 79 77 79 81 76 94 89 45 8 5 4 1 13 2 14 3 2 16 12 6 1 3 1 14 5 4 6 0 6 0 16 0 5 6 2 2 8 1 0 2 5 4 6 8 15 13 1 1 0 0 0 4 0 0 0 0 0 0 0 0 0 
0 0 0 0 0 0 0 0 1 3 3 6 7 9 9 1 0 0 2 2 1 1 2 2 3 6 1 15 2 10 5 6 6 10 19 8 1 0 1 18 12 4 0 0 0 8 15 10 5 3 5 9 3 4 58 79 84 81 78 78 71 67 40 6 2 18 13 2 2 13 18 2 6 40 67 71 78 78 81 84 79 58 4 3 9 5 3 5 10 15 8 0 0 0 4 12 18 1 0 1 8 19 10 6 6 5 10 2 15 1 6 3 2 2 1 1 2 2 0 0 1 9 9 7 6 3 3 1 0 0 0 0 0 0 0 0 
0 0 0 0 0 0 0 0 1 0 2 11 0 1 12 1 0 3 5 3 2 3 3 1 1 1 8 5 7 1 5 3 0 3 0 7 0 14 1 1 0 11 6 5 7 0 0 7 8 7 1 1 12 1 9 8 18 2 2 10 2 1 1 3 1 1 1 11 11 1 1 1 3 1 1 2 10 2 2 18 8 9 1 12 1 1 7 8 7 0 0 7 5 6 11 0 1 1 14 0 7 0 3 0 3 5 1 7 5 8 1 1 1 3 3 2 3 5 3 0 1 12 1 0 11 2 0 1 0 0 0 0 0 0 0 0 
0 0 0 0 0 0 0 0 0 0 0 0 0 0 0 0 0 0 0 0 0 0 0 0 0 0 0 0 0 0 0 0 0 1 0 1 0 1 1 0 0 0 0 0 0 0 0 0 0 1 1 1 1 1 2 3 2 3 3 2 2 2 2 0 0 0 1 0 0 1 0 0 0 2 2 2 2 3 3 2 3 2 1 1 1 1 1 0 0 0 0 0 0 0 0 0 0 1 1 0 1 0 1 0 0 0 0 0 0 0 0 0 0 0 0 0 0 0 0 0 0 0 0 0 0 0 0 0 0 0 0 0 0 0 0 0 
0 0 0 0 0 0 0 0 0 0 0 0 0 0 0 0 0 0 0 0 0 0 0 0 0 0 0 0 0 0 0 0 1 1 1 1 1 1 1 1 0 0 0 0 0 0 0 0 0 1 2 2 1 1 2 2 2 2 3 3 2 2 2 1 0 0 0 0 0 0 0 0 1 2 2 2 3 3 2 2 2 2 1 1 2 2 1 0 0 0 0 0 0 0 0 0 1 1 1 1 1 1 1 1 0 0 0 0 0 0 0 0 0 0 0 0 0 0 0 0 0 0 0 0 0 0 0 0 0 0 0 0 0 0 0 0 
